<svg xmlns="http://www.w3.org/2000/svg" fill="#007396" viewBox="0 0 24 24" xmlns:v="https://vecta.io/nano"><path d="M8.85 18.56s-.917.534.653.714c1.902.218 2.874.187 4.97-.21a8.71 8.71 0 0 0 1.321.646c-4.7 2.013-10.633-.118-6.943-1.15m-.575-2.627s-1.028.76.542.924c2.032.21 3.636.227 6.413-.308a2.85 2.85 0 0 0 .987.602c-5.68 1.66-12.007.13-7.942-1.218m4.84-4.458c1.158 1.333-.304 2.533-.304 2.533S15.75 12.5 14.4 10.6c-1.26-1.772-2.228-2.652 3.007-5.688 0-.001-8.216 2.05-4.292 6.573m6.214 9.03s.68.56-.747.99c-2.712.822-11.288 1.07-13.67.033-.856-.373.75-.9 1.254-.998.527-.114.828-.093.828-.093-.953-.67-6.156 1.317-2.643 1.887 9.58 1.553 17.462-.7 14.977-1.82M9.292 13.2s-4.362 1.036-1.544 1.412c1.19.16 3.56.123 5.77-.062 1.806-.152 3.618-.477 3.618-.477s-.637.272-1.098.587c-4.43 1.165-12.986.623-10.522-.568 2.082-1.006 3.776-.892 3.776-.892m7.824 4.374c4.503-2.34 2.42-4.59.968-4.285-.355.074-.515.138-.515.138s.132-.207.385-.297c2.875-1.01 5.086 2.98-.928 4.562 0-.001.07-.062.1-.118M14.4 0s2.494 2.494-2.365 6.33c-3.896 3.077-.888 4.832-.001 6.836-2.274-2.053-3.943-3.858-2.824-5.54 1.644-2.47 6.197-3.665 5.2-7.627M9.734 23.924c4.322.277 10.96-.153 11.116-2.198 0 0-.302.775-3.572 1.39-3.688.694-8.24.613-10.937.168 0-.001.553.457 3.393.64"/></svg>