<svg xmlns="http://www.w3.org/2000/svg" fill="#777BB4" viewBox="0 0 24 24" xmlns:v="https://vecta.io/nano"><path d="M7 10.207h-.944l-.515 2.648h.838c.556 0 .97-.105 1.242-.314s.455-.56.55-1.05c.092-.47.05-.802-.124-.995s-.523-.3-1.047-.3zm5-4.52C5.373 5.688 0 8.514 0 12s5.373 6.313 12 6.313S24 15.486 24 12s-5.373-6.312-12-6.312zm-3.26 7.45c-.26.25-.575.438-.917.55-.336.108-.765.164-1.285.164h-1.18l-.327 1.68H3.652l1.23-6.326h2.65c.797 0 1.378.21 1.744.628s.476 1.002.33 1.752a2.836 2.836 0 0 1-.305.847c-.143.255-.33.5-.56.703zm4.024.715l.543-2.8c.063-.318.04-.536-.068-.65s-.336-.174-.687-.174H11.46l-.704 3.625H9.388l1.23-6.327h1.367L11.658 9.2h1.218c.767 0 1.295.134 1.586.4s.378.7.263 1.3l-.572 2.944h-1.39zm7.597-2.265a2.782 2.782 0 0 1-.305.847c-.143.255-.33.5-.56.703a2.44 2.44 0 0 1-.917.551c-.336.108-.765.164-1.286.164h-1.18l-.327 1.682h-1.378l1.23-6.326h2.65c.797 0 1.378.21 1.744.628s.477 1 .33 1.75zm-2.595-1.382h-.943l-.516 2.648h.838c.557 0 .97-.105 1.242-.314s.455-.56.55-1.05c.092-.47.05-.802-.125-.995s-.524-.3-1.047-.3z"/></svg>