<svg xmlns="http://www.w3.org/2000/svg" viewBox="0 0 24 24" fill="#3776AB" xmlns:v="https://vecta.io/nano"><path d="M14.3.18l.9.2.73.26.6.3.45.32.34.34.25.34.16.33.1.3.04.26.02.2-.01.13V8.5l-.05.63-.13.55-.2.46-.26.38-.3.3-.33.25-.35.2-.35.14-.33.1-.3.07-.26.04-.2.02H8.83l-.7.05-.6.14-.5.22-.4.27-.33.32-.27.35-.2.36-.15.37-.1.35-.07.32-.04.27-.02.2v3.06H3.23l-.2-.03-.28-.07-.32-.12-.35-.18-.36-.26-.36-.36-.35-.46-.32-.6-.28-.73-.2-.88-.14-1.05L0 11.97l.06-1.22.16-1.04.24-.87.32-.7.36-.57.4-.44.42-.33.42-.24.4-.16.36-.1.32-.05.24-.01h.16l.06.01h8.16V5.4H6.24l-.01-2.75-.02-.37.05-.34.1-.3.17-.28.25-.26.3-.23.38-.2.44-.18.5-.15L9 .22l.64-.1.7-.06.77-.04.84-.02 1.27.05 1.07.13zM8 2.16l-.23.33-.08.4.08.4.23.34.33.22.4.1.4-.1.33-.22.23-.34.08-.4-.08-.4-.23-.33-.33-.22-.4-.1-.4.1-.33.22zM21.1 6.1l.28.06.32.12.35.18.36.27.36.35.35.47.32.6.28.73.2.88.14 1.04.05 1.23-.06 1.23-.16 1.04-.24.86-.32.7-.36.57-.4.45-.42.33-.42.24-.4.16-.36.1-.32.05-.24.02-.16-.01h-8.22v.82h5.84l.01 2.76v.36l-.05.34-.1.3-.17.3-.25.25-.3.24-.38.2-.44.17-.5.15-.58.13-.64.1-.7.07L13 24h-.84l-1.27-.04-1.07-.14-.9-.2-.73-.25-.6-.3-.45-.33-.34-.34-.25-.34-.16-.33-.1-.3-.04-.25-.02-.2.01-.13V15.5l.05-.64.13-.54.2-.46.26-.38.3-.32.33-.24.35-.2.35-.14.33-.1.3-.06.26-.04.2-.02.13-.01h5.84l.7-.05.6-.14.5-.2.4-.28.33-.32.27-.35.2-.36.15-.36.1-.35.07-.32.04-.28.02-.2V6.07h2.1l.14.01.2.03zm-6.47 14.25l-.23.33-.08.4.08.4.23.33.33.23.4.08.4-.08.33-.23.23-.33.08-.4-.08-.4-.23-.33-.33-.23-.4-.08-.4.08-.33.23z"/></svg>